<?xml version="1.0" encoding="UTF-8"?>
<!DOCTYPE svg PUBLIC "-//W3C//DTD SVG 1.1//EN" "http://www.w3.org/Graphics/SVG/1.1/DTD/svg11.dtd">
<svg xmlns="http://www.w3.org/2000/svg" version="1.1" width="2560px" height="2560px" style="shape-rendering:geometricPrecision; text-rendering:geometricPrecision; image-rendering:optimizeQuality; fill-rule:evenodd; clip-rule:evenodd" xmlns:xlink="http://www.w3.org/1999/xlink">
<g><path style="opacity:0.983" fill="#000000" d="M 1789.5,177.5 C 1793.55,177.176 1797.55,177.509 1801.5,178.5C 1747,278.833 1692.5,379.167 1638,479.5C 1630.67,494.66 1620.17,507.16 1606.5,517C 1557.17,544.667 1507.83,572.333 1458.5,600C 1504.12,591.576 1549.79,583.076 1595.5,574.5C 1554.25,662.387 1504.42,744.72 1446,821.5C 1424.8,848.371 1400.63,872.204 1373.5,893C 1324.55,921.811 1273.88,947.478 1221.5,970C 1172.78,990.903 1123.94,1011.4 1075,1031.5C 1065.98,1064.26 1056.64,1096.92 1047,1129.5C 1044.89,1133.94 1041.39,1136.44 1036.5,1137C 1021.5,1137.67 1006.5,1137.67 991.5,1137C 987,1136.5 984.5,1134 984,1129.5C 983.333,1126.83 983.333,1124.17 984,1121.5C 992.834,1086.33 1001.67,1051.16 1010.5,1016C 1000.39,998.02 993.226,978.853 989,958.5C 975.796,882.057 978.129,806.057 996,730.5C 1031.87,584.861 1108.37,465.695 1225.5,373C 1300.7,315.221 1383.7,271.221 1474.5,241C 1577.15,207.571 1682.15,186.404 1789.5,177.5 Z M 1059.5,956.5 C 1067.49,911.552 1079.99,867.885 1097,825.5C 1154.41,681.797 1239.24,556.964 1351.5,451C 1420.16,387.809 1497.16,336.809 1582.5,298C 1597.05,291.71 1611.72,286.043 1626.5,281C 1413.66,408.505 1252.16,583.338 1142,805.5C 1124.52,842.284 1109.18,879.95 1096,918.5C 1083.97,931.365 1071.8,944.032 1059.5,956.5 Z"/></g>
<g><path style="opacity:0.914" fill="#000000" d="M 555.5,945.5 C 561.291,944.489 566.124,946.156 570,950.5C 571.654,956.113 573.154,961.78 574.5,967.5C 585.693,962.744 597.36,961.244 609.5,963C 610.877,964.397 611.71,965.897 612,967.5C 613.932,965.822 616.098,965.322 618.5,966C 632.332,975.489 632.999,985.822 620.5,997C 615.833,1001 611.167,1005 606.5,1009C 604.888,1009.72 603.388,1009.55 602,1008.5C 597.167,1012 593,1016.17 589.5,1021C 585.489,1022.44 581.822,1024.44 578.5,1027C 575.975,1027.9 573.808,1027.4 572,1025.5C 571.167,1026.33 570.333,1027.17 569.5,1028C 584.227,1043.4 599.561,1058.06 615.5,1072C 621.409,1076.04 627.909,1078.21 635,1078.5C 637.167,1078.33 639.333,1078.17 641.5,1078C 640.659,1070.5 641.159,1063 643,1055.5C 649.563,1034.71 658.563,1015.04 670,996.5C 679.502,982.167 688.502,967.501 697,952.5C 701.767,945.246 708.1,943.579 716,947.5C 716.192,949.577 716.692,951.577 717.5,953.5C 719.858,955.024 721.691,957.024 723,959.5C 723.881,968.562 723.548,977.562 722,986.5C 720.488,987.257 719.154,988.257 718,989.5C 713.842,1000.31 707.675,1009.81 699.5,1018C 699.833,1018.33 700.167,1018.67 700.5,1019C 697.305,1021.51 693.972,1023.85 690.5,1026C 692.286,1026.2 693.619,1027.03 694.5,1028.5C 690.457,1035.25 686.957,1042.25 684,1049.5C 680.93,1059.71 677.264,1069.71 673,1079.5C 673.179,1082.09 674.013,1084.59 675.5,1087C 674.256,1089.38 672.423,1091.22 670,1092.5C 669.502,1095.48 669.335,1098.48 669.5,1101.5C 666.193,1101.54 663.026,1100.87 660,1099.5C 647.891,1107.09 634.724,1110.59 620.5,1110C 609.769,1106.6 600.602,1100.76 593,1092.5C 584.092,1081.68 575.426,1070.68 567,1059.5C 560,1051.17 552.333,1043.5 544,1036.5C 537.839,1046.82 532.172,1057.48 527,1068.5C 526.678,1072.9 527.178,1077.23 528.5,1081.5C 528.237,1084.03 527.404,1086.36 526,1088.5C 522.167,1092.08 518.167,1095.41 514,1098.5C 503.11,1095.85 497.943,1089.02 498.5,1078C 496.406,1076.74 495.406,1074.91 495.5,1072.5C 502.128,1050.46 510.628,1029.12 521,1008.5C 531.468,986.895 542.968,965.895 555.5,945.5 Z"/></g>
<g><path style="opacity:0.922" fill="#000000" d="M 803.5,945.5 C 806.448,945.223 809.281,945.556 812,946.5C 814.84,952.854 818.174,958.854 822,964.5C 834.931,960.926 848.098,958.26 861.5,956.5C 870.868,957.721 878.368,962.055 884,969.5C 883.561,975.063 883.394,980.563 883.5,986C 880.975,986.896 878.808,986.396 877,984.5C 876.833,987.333 875.333,988.833 872.5,989C 861.823,989.905 851.156,990.905 840.5,992C 833.135,993.904 825.802,995.737 818.5,997.5C 818.649,996.448 818.483,995.448 818,994.5C 813.766,996.802 809.766,999.469 806,1002.5C 800.612,1012.28 796.612,1022.61 794,1033.5C 792.214,1036.36 789.881,1037.03 787,1035.5C 786.73,1041.14 786.064,1046.81 785,1052.5C 783.776,1055.47 781.776,1056.14 779,1054.5C 776.728,1057.49 777.561,1058.82 781.5,1058.5C 778.519,1070.61 775.019,1082.61 771,1094.5C 766.216,1095.4 761.383,1095.23 756.5,1094C 752.866,1091.01 750.366,1087.18 749,1082.5C 748.301,1075.78 747.634,1069.11 747,1062.5C 753.266,1041.7 761.099,1021.53 770.5,1002C 760.191,1001.04 750.024,1001.87 740,1004.5C 738.373,1004.37 736.873,1003.87 735.5,1003C 729.746,995.074 727.246,986.24 728,976.5C 728.465,975.069 729.299,973.903 730.5,973C 743.833,972.667 757.167,972.333 770.5,972C 777.239,971.545 783.072,969.045 788,964.5C 791.294,956.544 796.461,950.211 803.5,945.5 Z"/></g>
<g><path style="opacity:0.875" fill="#000000" d="M 919.5,945.5 C 927.376,945.568 935.043,946.902 942.5,949.5C 943.357,950.736 944.023,952.069 944.5,953.5C 943.957,957.934 942.624,962.1 940.5,966C 952.832,967.53 964.832,969.863 976.5,973C 978.904,973.508 979.571,974.675 978.5,976.5C 980.475,977.578 982.308,977.245 984,975.5C 985.255,976.211 986.421,977.044 987.5,978C 981.126,984.355 973.459,988.355 964.5,990C 950.206,993.185 935.873,996.185 921.5,999C 919.998,999.583 918.665,1000.42 917.5,1001.5C 915.539,1005.26 913.205,1008.76 910.5,1012C 919.543,1010.16 928.543,1007.82 937.5,1005C 947.035,1002.87 953.535,1006.37 957,1015.5C 957.273,1018.39 958.107,1021.06 959.5,1023.5C 958.954,1025.13 958.62,1026.8 958.5,1028.5C 944.447,1030.68 930.447,1033.18 916.5,1036C 910.003,1037.54 903.67,1039.54 897.5,1042C 894.036,1047.38 891.536,1053.22 890,1059.5C 888.878,1064.1 888.378,1068.77 888.5,1073.5C 896.532,1074.36 904.532,1074.69 912.5,1074.5C 913.548,1073.62 914.715,1072.95 916,1072.5C 918.639,1073.65 921.139,1074.99 923.5,1076.5C 924.167,1076.33 924.833,1076.17 925.5,1076C 924.421,1075.04 923.255,1074.21 922,1073.5C 921.383,1072.55 921.549,1071.72 922.5,1071C 932.536,1068.43 942.369,1065.27 952,1061.5C 955.357,1063.48 955.191,1065.31 951.5,1067C 957.111,1066.13 962.611,1064.63 968,1062.5C 970.952,1064.19 971.118,1066.03 968.5,1068C 963.275,1070.45 957.942,1072.61 952.5,1074.5C 954.169,1075.67 955.669,1077 957,1078.5C 959.055,1077.31 961.055,1077.31 963,1078.5C 962.912,1081.64 961.412,1084.14 958.5,1086C 944.948,1091.74 930.948,1096.07 916.5,1099C 874.534,1102.37 856.701,1083.2 863,1041.5C 871.346,1020.48 881.012,1000.14 892,980.5C 891.556,975.138 892.222,969.805 894,964.5C 894.833,963.667 895.667,962.833 896.5,962C 900.29,961.77 903.624,960.437 906.5,958C 910.729,953.602 915.062,949.436 919.5,945.5 Z M 938.5,1071.5 C 940.455,1069.67 942.788,1069.17 945.5,1070C 943.187,1070.66 940.854,1071.16 938.5,1071.5 Z"/></g>
<g><path style="opacity:0.914" fill="#000000" d="M 320.5,959.5 C 326.043,962.168 330.543,966.168 334,971.5C 339.19,980.903 342.69,990.903 344.5,1001.5C 342.542,1013.75 340.209,1025.92 337.5,1038C 337.625,1039.63 338.125,1041.13 339,1042.5C 349,1029.17 359,1015.83 369,1002.5C 372.92,1000.54 376.254,997.877 379,994.5C 381.667,990.5 384.333,986.5 387,982.5C 389.036,978.052 390.87,973.552 392.5,969C 400.226,968.79 405.726,972.29 409,979.5C 412.146,987.25 413.813,995.25 414,1003.5C 408.153,1013.87 402.319,1024.2 396.5,1034.5C 398.603,1037.27 401.269,1039.27 404.5,1040.5C 407.743,1038.77 410.577,1036.43 413,1033.5C 427.531,1013.98 443.364,995.476 460.5,978C 466.327,973.25 472.66,969.25 479.5,966C 484.165,964.663 488.832,964.497 493.5,965.5C 493.023,966.478 492.357,967.311 491.5,968C 491.833,968.167 492.167,968.333 492.5,968.5C 495.256,965.573 498.422,963.24 502,961.5C 504.428,962.26 506.261,963.76 507.5,966C 510.232,966.413 512.899,967.08 515.5,968C 516.212,969.425 516.379,970.925 516,972.5C 518.646,969.754 521.812,968.587 525.5,969C 527.007,969.837 527.507,971.004 527,972.5C 521.969,977.922 516.469,982.755 510.5,987C 507.833,987.667 505.167,988.333 502.5,989C 490.5,1001 478.5,1013 466.5,1025C 465.552,1025.48 464.552,1025.65 463.5,1025.5C 462.685,1030.8 460.519,1035.46 457,1039.5C 454.791,1041.37 452.958,1043.54 451.5,1046C 450.207,1046.49 448.873,1046.66 447.5,1046.5C 447.649,1045.45 447.483,1044.45 447,1043.5C 444.06,1046.65 442.893,1050.15 443.5,1054C 434.253,1066.58 424.253,1078.58 413.5,1090C 410.377,1093.02 406.71,1094.02 402.5,1093C 400.539,1089.58 398.706,1086.08 397,1082.5C 393.965,1081.82 391.631,1080.15 390,1077.5C 385,1068.17 380,1058.83 375,1049.5C 364.667,1064.17 354.333,1078.83 344,1093.5C 341.936,1094.59 339.769,1094.76 337.5,1094C 334.945,1090.43 331.612,1088.1 327.5,1087C 320.921,1077.94 317.088,1067.77 316,1056.5C 314.248,1025.82 314.581,995.153 317,964.5C 317.257,962.093 318.424,960.427 320.5,959.5 Z"/></g>
<g><path style="opacity:0.911" fill="#000000" d="M 1618.5,1120.5 C 1624.53,1120.43 1630.53,1120.76 1636.5,1121.5C 1636.34,1124.52 1636.5,1127.52 1637,1130.5C 1643.3,1134.13 1647.3,1139.47 1649,1146.5C 1649.16,1158.89 1648.33,1171.22 1646.5,1183.5C 1644.71,1183.21 1643.05,1183.55 1641.5,1184.5C 1635.73,1195.04 1630.23,1205.71 1625,1216.5C 1621.62,1222.25 1617.12,1226.92 1611.5,1230.5C 1612.43,1231.77 1612.59,1233.1 1612,1234.5C 1607.16,1237.25 1602.5,1240.25 1598,1243.5C 1595.73,1246.7 1594.07,1250.03 1593,1253.5C 1594.83,1251 1596.67,1248.5 1598.5,1246C 1600.13,1245.51 1601.8,1245.34 1603.5,1245.5C 1603.66,1246.87 1603.49,1248.21 1603,1249.5C 1598.55,1256.06 1594.89,1263.06 1592,1270.5C 1582.53,1294.91 1573.86,1319.58 1566,1344.5C 1565.5,1349.15 1565.33,1353.82 1565.5,1358.5C 1558.69,1357.6 1552.35,1355.27 1546.5,1351.5C 1545.69,1349.23 1545.19,1346.9 1545,1344.5C 1544.51,1345.79 1544.34,1347.13 1544.5,1348.5C 1543.13,1348.66 1541.79,1348.49 1540.5,1348C 1532.57,1341.3 1526.74,1333.13 1523,1323.5C 1522.4,1309.15 1524.4,1295.15 1529,1281.5C 1537.84,1256.48 1548.84,1232.48 1562,1209.5C 1578.92,1182 1595.58,1154.33 1612,1126.5C 1613.91,1124.14 1616.08,1122.14 1618.5,1120.5 Z"/></g>
<g><path style="opacity:0.898" fill="#000000" d="M 1918.5,1120.5 C 1930.77,1120.45 1942.77,1122.29 1954.5,1126C 1955.58,1134.94 1953.91,1143.44 1949.5,1151.5C 1958.7,1153.65 1968.03,1154.82 1977.5,1155C 1978.42,1155.37 1979.25,1155.87 1980,1156.5C 1980.36,1158.42 1981.19,1160.09 1982.5,1161.5C 1987.11,1160.39 1991.78,1160.22 1996.5,1161C 2000.72,1162.64 2005.05,1163.81 2009.5,1164.5C 2009.61,1166.9 2008.61,1168.74 2006.5,1170C 2000.97,1173.57 1994.97,1176.07 1988.5,1177.5C 1987.42,1178.36 1987.25,1179.36 1988,1180.5C 1998.39,1176.65 2008.56,1172.32 2018.5,1167.5C 2020.45,1169.04 2020.95,1171.04 2020,1173.5C 2007.99,1180.62 1995.16,1185.78 1981.5,1189C 1959.35,1193.26 1937.35,1198.1 1915.5,1203.5C 1911.54,1210.59 1907.21,1217.42 1902.5,1224C 1917.53,1220.49 1932.53,1216.49 1947.5,1212C 1960.98,1209.47 1970.15,1214.64 1975,1227.5C 1974.32,1231.76 1975.82,1235.26 1979.5,1238C 1978.67,1240.5 1977.83,1243 1977,1245.5C 1955.91,1249.78 1934.74,1253.95 1913.5,1258C 1903.99,1260.04 1894.65,1262.71 1885.5,1266C 1879.73,1272.03 1875.9,1279.2 1874,1287.5C 1871.04,1296.65 1869.37,1305.99 1869,1315.5C 1873.91,1318.47 1879.24,1319.8 1885,1319.5C 1891.47,1319.37 1897.81,1318.37 1904,1316.5C 1905.53,1317.22 1906.86,1318.22 1908,1319.5C 1910.18,1316.71 1913.01,1315.88 1916.5,1317C 1918.38,1319.22 1920.55,1321.06 1923,1322.5C 1926.89,1321.54 1930.73,1320.37 1934.5,1319C 1931.17,1318.67 1927.83,1318.33 1924.5,1318C 1922.96,1316.89 1922.3,1315.39 1922.5,1313.5C 1939.08,1309.64 1955.41,1304.97 1971.5,1299.5C 1971.67,1303.17 1970.01,1305.67 1966.5,1307C 1957.61,1308.64 1949.28,1311.64 1941.5,1316C 1957.26,1311.97 1972.92,1307.31 1988.5,1302C 1990.81,1301.5 1993.14,1301.34 1995.5,1301.5C 1995.61,1303.9 1994.61,1305.74 1992.5,1307C 1983.72,1310.48 1975.05,1314.15 1966.5,1318C 1969.17,1319 1971.51,1320.5 1973.5,1322.5C 1973.02,1323.48 1972.36,1324.31 1971.5,1325C 1953.3,1330.8 1934.97,1336.13 1916.5,1341C 1922.98,1341.83 1929.32,1341.17 1935.5,1339C 1952.12,1333.51 1968.79,1328.35 1985.5,1323.5C 1985.56,1327.55 1983.89,1330.71 1980.5,1333C 1959.06,1342.81 1936.73,1349.81 1913.5,1354C 1849.41,1358.92 1822.58,1329.75 1833,1266.5C 1835.06,1260.06 1837.39,1253.72 1840,1247.5C 1852.33,1222.83 1864.67,1198.17 1877,1173.5C 1875.86,1165.28 1876.86,1157.28 1880,1149.5C 1881.05,1147.91 1882.21,1146.41 1883.5,1145C 1890.17,1145 1895.84,1142.67 1900.5,1138C 1906.4,1131.94 1912.4,1126.1 1918.5,1120.5 Z"/></g>
<g><path style="opacity:0.935" fill="#000000" d="M 1758.5,1133.5 C 1773.5,1133.33 1788.5,1133.5 1803.5,1134C 1804.21,1135.43 1804.38,1136.93 1804,1138.5C 1816.52,1143.51 1822.52,1152.84 1822,1166.5C 1825.32,1173.37 1823.82,1179.2 1817.5,1184C 1818.59,1186.06 1818.76,1188.23 1818,1190.5C 1816.14,1193.41 1813.64,1194.91 1810.5,1195C 1808.98,1193.65 1807.65,1192.15 1806.5,1190.5C 1803.35,1192.29 1800.01,1193.12 1796.5,1193C 1792.25,1188.34 1792.58,1184 1797.5,1180C 1766.14,1179.06 1738.81,1188.89 1715.5,1209.5C 1715.53,1211.03 1716.2,1212.2 1717.5,1213C 1730.16,1222.33 1743.49,1230.67 1757.5,1238C 1762.25,1240.75 1766.42,1244.25 1770,1248.5C 1771.56,1246.48 1773.39,1246.15 1775.5,1247.5C 1784.26,1256.36 1789.26,1267.02 1790.5,1279.5C 1789.49,1289.15 1788.66,1298.81 1788,1308.5C 1785.87,1309.42 1783.7,1309.58 1781.5,1309C 1767.26,1325.06 1749.93,1336.56 1729.5,1343.5C 1725.85,1342.5 1722.18,1342 1718.5,1342C 1715.32,1343.85 1713.82,1346.68 1714,1350.5C 1700.25,1357.23 1685.75,1360.4 1670.5,1360C 1663.93,1356.88 1658.27,1352.55 1653.5,1347C 1647.07,1345.71 1641.9,1342.54 1638,1337.5C 1636.96,1334.25 1636.3,1330.91 1636,1327.5C 1625.73,1313.52 1627.73,1301.85 1642,1292.5C 1647.46,1296.95 1652.62,1301.79 1657.5,1307C 1662.23,1309.4 1667.23,1310.07 1672.5,1309C 1695.69,1304.9 1716.02,1295.24 1733.5,1280C 1728.51,1273.68 1723.51,1267.34 1718.5,1261C 1716.29,1259.96 1713.95,1259.29 1711.5,1259C 1708.17,1255 1704.83,1251 1701.5,1247C 1699.92,1246.29 1698.42,1245.46 1697,1244.5C 1695.4,1246.04 1693.57,1246.54 1691.5,1246C 1684.38,1240.56 1679.22,1233.73 1676,1225.5C 1673.44,1214.74 1671.27,1203.91 1669.5,1193C 1670.17,1183.17 1674.17,1175 1681.5,1168.5C 1703.74,1149.31 1729.4,1137.64 1758.5,1133.5 Z M 1702.5,1348.5 C 1703.8,1346.9 1705.47,1346.4 1707.5,1347C 1705.98,1348.01 1704.31,1348.51 1702.5,1348.5 Z"/></g>
<g><path style="opacity:0.937" fill="#000000" d="M 1245.5,1142.5 C 1248.56,1142.14 1251.23,1142.98 1253.5,1145C 1271.86,1163.75 1281.03,1186.25 1281,1212.5C 1277.84,1228.79 1275.01,1245.12 1272.5,1261.5C 1272.21,1265.45 1273.04,1269.12 1275,1272.5C 1291,1250.5 1307,1228.5 1323,1206.5C 1326.76,1204.69 1330.42,1202.69 1334,1200.5C 1339.27,1191.56 1344.94,1182.9 1351,1174.5C 1354.46,1151.12 1363.8,1148.46 1379,1166.5C 1383.74,1178.54 1387.57,1190.88 1390.5,1203.5C 1383.12,1217.26 1375.95,1231.26 1369,1245.5C 1366.29,1249.75 1363.46,1253.92 1360.5,1258C 1365.94,1261.13 1371.11,1264.63 1376,1268.5C 1377.82,1267.35 1379.66,1266.18 1381.5,1265C 1401.29,1240.21 1421.46,1215.71 1442,1191.5C 1454.31,1177.85 1467.81,1165.69 1482.5,1155C 1491.97,1149.94 1501.97,1148.44 1512.5,1150.5C 1511.86,1151.65 1511.02,1152.65 1510,1153.5C 1509.33,1154.5 1509.33,1155.5 1510,1156.5C 1515.31,1152.69 1520.48,1148.69 1525.5,1144.5C 1529.21,1145.37 1531.87,1147.54 1533.5,1151C 1538.44,1152.27 1543.44,1153.1 1548.5,1153.5C 1547.29,1158.23 1544.62,1162.07 1540.5,1165C 1541.5,1165.67 1542.5,1165.67 1543.5,1165C 1547.34,1161.25 1551.68,1158.25 1556.5,1156C 1559.3,1155.25 1561.97,1155.58 1564.5,1157C 1565.52,1158.05 1565.68,1159.22 1565,1160.5C 1557.8,1167.37 1550.3,1173.87 1542.5,1180C 1537.87,1182.74 1532.87,1184.41 1527.5,1185C 1507.86,1203.64 1488.53,1222.64 1469.5,1242C 1467.61,1242.16 1466.11,1241.33 1465,1239.5C 1465.34,1245.76 1463.68,1251.43 1460,1256.5C 1455.23,1263.05 1450.23,1269.38 1445,1275.5C 1444.23,1275.36 1443.56,1275.02 1443,1274.5C 1442.88,1270.9 1443.55,1267.57 1445,1264.5C 1437.34,1271.74 1433,1280.41 1432,1290.5C 1423.33,1301.17 1414.67,1311.83 1406,1322.5C 1398.75,1331.75 1390.25,1339.58 1380.5,1346C 1378.17,1346.67 1375.83,1346.67 1373.5,1346C 1370.21,1340.58 1367.04,1335.08 1364,1329.5C 1363.31,1328.64 1362.48,1327.98 1361.5,1327.5C 1360.28,1328.71 1359.11,1328.71 1358,1327.5C 1354.91,1322.33 1351.58,1317.33 1348,1312.5C 1343.1,1300.45 1337.43,1288.79 1331,1277.5C 1315.26,1297.97 1300.26,1318.97 1286,1340.5C 1283.72,1342.91 1281.55,1345.41 1279.5,1348C 1278.83,1348.17 1278.17,1348.33 1277.5,1348.5C 1272.41,1344.92 1267.75,1340.75 1263.5,1336C 1261.26,1336.32 1259.09,1336.15 1257,1335.5C 1248.95,1323.72 1243.95,1310.72 1242,1296.5C 1238.74,1270.26 1237.74,1243.93 1239,1217.5C 1239.7,1193.45 1241.03,1169.45 1243,1145.5C 1244.04,1144.63 1244.88,1143.63 1245.5,1142.5 Z M 1528.5,1173.5 C 1528.78,1172.71 1529.28,1172.04 1530,1171.5C 1530.53,1172.82 1530.03,1173.48 1528.5,1173.5 Z M 1512.5,1185.5 C 1512.03,1186.91 1511.03,1187.57 1509.5,1187.5C 1509.97,1186.09 1510.97,1185.43 1512.5,1185.5 Z M 1471.5,1228.5 C 1471.53,1223.63 1473.87,1221.46 1478.5,1222C 1476.3,1224.37 1473.96,1226.54 1471.5,1228.5 Z"/></g>
<g><path style="opacity:0.976" fill="#000000" d="M 849.5,1175.5 C 959.834,1175.33 1070.17,1175.5 1180.5,1176C 1185.1,1177.6 1187.93,1180.76 1189,1185.5C 1189.67,1201.17 1189.67,1216.83 1189,1232.5C 1187.99,1236.84 1185.49,1240.01 1181.5,1242C 1070.83,1242.67 960.167,1242.67 849.5,1242C 846.333,1240.17 843.833,1237.67 842,1234.5C 841.333,1217.5 841.333,1200.5 842,1183.5C 844.028,1180.31 846.528,1177.64 849.5,1175.5 Z"/></g>
<g><path style="opacity:0.974" fill="#000000" d="M 881.5,1268.5 C 969.501,1268.33 1057.5,1268.5 1145.5,1269C 1150.1,1270.6 1152.93,1273.76 1154,1278.5C 1154.67,1293.83 1154.67,1309.17 1154,1324.5C 1152.99,1328.84 1150.49,1332.01 1146.5,1334C 1058.17,1334.67 969.833,1334.67 881.5,1334C 878.333,1332.17 875.833,1329.67 874,1326.5C 873.333,1309.83 873.333,1293.17 874,1276.5C 876.028,1273.31 878.528,1270.64 881.5,1268.5 Z"/></g>
<g><path style="opacity:0.984" fill="#000000" d="M 827.5,1353.5 C 952.167,1353.33 1076.83,1353.5 1201.5,1354C 1221.98,1357.15 1233.82,1368.98 1237,1389.5C 1248.44,1455.81 1259.77,1522.15 1271,1588.5C 1274.71,1611.76 1265.54,1627.26 1243.5,1635C 1090.83,1635.67 938.167,1635.67 785.5,1635C 772.688,1631.03 763.855,1622.86 759,1610.5C 758.333,1601.17 758.333,1591.83 759,1582.5C 770.247,1514.02 782.247,1445.69 795,1377.5C 801.328,1363.27 812.161,1355.27 827.5,1353.5 Z M 931.5,1449.5 C 994.537,1449.02 1057.54,1449.52 1120.5,1451C 1129.87,1454.37 1135.7,1460.87 1138,1470.5C 1139.58,1488.13 1139.91,1505.79 1139,1523.5C 1137.46,1539.71 1128.62,1548.55 1112.5,1550C 1053.17,1550.67 993.833,1550.67 934.5,1550C 920.635,1549.14 911.802,1541.98 908,1528.5C 907.333,1509.17 907.333,1489.83 908,1470.5C 911.699,1458.75 919.533,1451.75 931.5,1449.5 Z"/></g>
</svg>
