<?xml version="1.0" encoding="UTF-8"?>
<!DOCTYPE svg PUBLIC "-//W3C//DTD SVG 1.1//EN" "http://www.w3.org/Graphics/SVG/1.1/DTD/svg11.dtd">
<svg xmlns="http://www.w3.org/2000/svg" version="1.1" width="2560px" height="2560px" style="shape-rendering:geometricPrecision; text-rendering:geometricPrecision; image-rendering:optimizeQuality; fill-rule:evenodd; clip-rule:evenodd" xmlns:xlink="http://www.w3.org/1999/xlink">
<g><path style="opacity:0.995" fill="#e87020" d="M 1965.5,550.5 C 1969.55,550.176 1973.55,550.509 1977.5,551.5C 1923,651.833 1868.5,752.167 1814,852.5C 1806.67,867.66 1796.17,880.16 1782.5,890C 1733.17,917.667 1683.83,945.333 1634.5,973C 1680.12,964.576 1725.79,956.076 1771.5,947.5C 1730.25,1035.39 1680.42,1117.72 1622,1194.5C 1600.8,1221.37 1576.63,1245.2 1549.5,1266C 1500.55,1294.81 1449.88,1320.48 1397.5,1343C 1348.78,1363.9 1299.94,1384.4 1251,1404.5C 1242.07,1437.28 1232.74,1469.95 1223,1502.5C 1220.89,1506.94 1217.39,1509.44 1212.5,1510C 1197.5,1510.67 1182.5,1510.67 1167.5,1510C 1163,1509.5 1160.5,1507 1160,1502.5C 1159.33,1499.83 1159.33,1497.17 1160,1494.5C 1169.07,1459.39 1177.9,1424.23 1186.5,1389C 1176.39,1371.02 1169.23,1351.85 1165,1331.5C 1151.8,1255.06 1154.13,1179.06 1172,1103.5C 1207.87,957.861 1284.37,838.695 1401.5,746C 1476.7,688.221 1559.7,644.221 1650.5,614C 1753.15,580.571 1858.15,559.405 1965.5,550.5 Z M 1235.5,1329.5 C 1243.9,1282.79 1257.07,1237.46 1275,1193.5C 1340.03,1033.5 1438.53,898.002 1570.5,787C 1627.87,740.285 1690.54,701.619 1758.5,671C 1773.05,664.71 1787.72,659.043 1802.5,654C 1589.66,781.505 1428.16,956.338 1318,1178.5C 1300.52,1215.28 1285.18,1252.95 1272,1291.5C 1259.97,1304.37 1247.8,1317.03 1235.5,1329.5 Z"/></g>
<g><path style="opacity:0.974" fill="#e87120" d="M 712.5,1336.5 C 718.291,1335.49 723.124,1337.16 727,1341.5C 728.562,1347.14 730.062,1352.81 731.5,1358.5C 743.376,1353.18 755.543,1352.18 768,1355.5C 768.617,1356.45 768.451,1357.28 767.5,1358C 770.045,1357.2 772.712,1356.87 775.5,1357C 780.014,1359.85 783.514,1363.68 786,1368.5C 787.65,1374.93 786.15,1380.43 781.5,1385C 775.5,1390.33 769.5,1395.67 763.5,1401C 761.443,1401.31 759.443,1401.31 757.5,1401C 751.679,1408.9 744.346,1414.9 735.5,1419C 732.975,1419.9 730.808,1419.4 729,1417.5C 728.167,1418.33 727.333,1419.17 726.5,1420C 739.862,1433.7 753.529,1447.03 767.5,1460C 774.563,1466.12 782.729,1469.62 792,1470.5C 794.167,1470.33 796.333,1470.17 798.5,1470C 797.464,1457.83 799.297,1445.99 804,1434.5C 809.671,1419.49 816.671,1405.16 825,1391.5C 835.68,1374.13 846.346,1356.8 857,1339.5C 861.231,1336.36 865.898,1335.69 871,1337.5C 872.836,1339.41 874.002,1341.75 874.5,1344.5C 876.858,1346.02 878.691,1348.02 880,1350.5C 880.667,1358.5 880.667,1366.5 880,1374.5C 878.96,1377.87 876.96,1380.53 874,1382.5C 870.618,1389.59 866.952,1396.59 863,1403.5C 861.292,1405.54 859.292,1407.21 857,1408.5C 856.727,1410.1 856.227,1411.6 855.5,1413C 852.497,1414.17 849.83,1415.83 847.5,1418C 848.793,1418.49 850.127,1418.66 851.5,1418.5C 842.656,1436.53 835.489,1455.2 830,1474.5C 831.084,1475.67 831.917,1477 832.5,1478.5C 830.851,1480.65 829.018,1482.65 827,1484.5C 826.502,1487.48 826.335,1490.48 826.5,1493.5C 823.193,1493.54 820.026,1492.87 817,1491.5C 804.797,1498.84 791.63,1502.34 777.5,1502C 766.769,1498.6 757.602,1492.76 750,1484.5C 741.092,1473.68 732.426,1462.68 724,1451.5C 717,1443.17 709.333,1435.5 701,1428.5C 694.794,1438.91 689.128,1449.58 684,1460.5C 683.528,1464.6 684.028,1468.6 685.5,1472.5C 685.17,1475.32 684.336,1477.99 683,1480.5C 679.107,1484.19 674.94,1487.53 670.5,1490.5C 665.66,1489.83 661.827,1487.5 659,1483.5C 656.078,1477.18 653.912,1470.68 652.5,1464C 667.242,1419.02 687.242,1376.52 712.5,1336.5 Z"/></g>
<g><path style="opacity:0.976" fill="#e87120" d="M 960.5,1336.5 C 963.119,1336.23 965.619,1336.56 968,1337.5C 970.772,1344.06 974.272,1350.06 978.5,1355.5C 991.483,1352.03 1004.65,1349.36 1018,1347.5C 1024.04,1348.38 1029.54,1350.55 1034.5,1354C 1036.71,1355.87 1038.54,1358.04 1040,1360.5C 1039.33,1366.17 1039.33,1371.83 1040,1377.5C 1037.41,1378.98 1035.07,1378.65 1033,1376.5C 1032.83,1379.33 1031.33,1380.83 1028.5,1381C 1011.13,1381.11 994.3,1383.94 978,1389.5C 975.812,1389.65 974.479,1388.65 974,1386.5C 971.705,1388.94 968.872,1390.44 965.5,1391C 962.129,1394.24 959.629,1398.07 958,1402.5C 954.808,1409.93 952.142,1417.6 950,1425.5C 948.412,1428.31 946.245,1428.98 943.5,1427.5C 943.167,1428.17 942.833,1428.83 942.5,1429.5C 942.404,1433.35 942.238,1437.35 942,1441.5C 941.529,1443.25 940.862,1444.91 940,1446.5C 938.542,1447.75 937.042,1447.75 935.5,1446.5C 935.167,1447 934.833,1447.5 934.5,1448C 936.328,1449.16 937.328,1450.83 937.5,1453C 934.334,1463.83 931.168,1474.66 928,1485.5C 926.874,1486.94 925.374,1487.61 923.5,1487.5C 920.174,1486.95 916.84,1486.45 913.5,1486C 910.225,1482.71 907.725,1478.88 906,1474.5C 905.301,1467.78 904.634,1461.11 904,1454.5C 910.268,1433.69 918.101,1413.52 927.5,1394C 917.181,1392.97 907.014,1393.8 897,1396.5C 895.373,1396.37 893.873,1395.87 892.5,1395C 886.535,1386.77 884.035,1377.6 885,1367.5C 885.465,1366.07 886.299,1364.9 887.5,1364C 900.833,1363.67 914.167,1363.33 927.5,1363C 933.718,1362.6 939.218,1360.43 944,1356.5C 946.667,1351.83 949.333,1347.17 952,1342.5C 954.364,1339.68 957.197,1337.68 960.5,1336.5 Z"/></g>
<g><path style="opacity:0.962" fill="#e87120" d="M 1075.5,1336.5 C 1083.29,1336.71 1090.96,1337.87 1098.5,1340C 1099.57,1341.31 1100.24,1342.81 1100.5,1344.5C 1099.93,1348.62 1098.93,1352.62 1097.5,1356.5C 1098,1356.83 1098.5,1357.17 1099,1357.5C 1110.34,1359.25 1121.51,1361.42 1132.5,1364C 1133.42,1364.37 1134.25,1364.87 1135,1365.5C 1134.74,1366.95 1134.9,1368.28 1135.5,1369.5C 1144.64,1366.6 1145.64,1368.43 1138.5,1375C 1132.99,1377.72 1127.33,1380.06 1121.5,1382C 1106.08,1384.96 1090.75,1388.3 1075.5,1392C 1072.75,1396.14 1069.75,1400.14 1066.5,1404C 1075.45,1401.85 1084.45,1399.51 1093.5,1397C 1102.78,1394.64 1109.28,1397.81 1113,1406.5C 1113.34,1409.54 1114.17,1412.37 1115.5,1415C 1115.06,1416.82 1114.72,1418.66 1114.5,1420.5C 1100.45,1422.68 1086.45,1425.18 1072.5,1428C 1066,1429.54 1059.67,1431.54 1053.5,1434C 1048.74,1442.2 1045.74,1451.03 1044.5,1460.5C 1044.05,1463.22 1045.05,1465.06 1047.5,1466C 1054.76,1466.2 1061.92,1466.36 1069,1466.5C 1069.74,1465.43 1070.74,1464.76 1072,1464.5C 1074.64,1465.65 1077.14,1466.99 1079.5,1468.5C 1080.17,1468.33 1080.83,1468.17 1081.5,1468C 1080.42,1467.04 1079.25,1466.21 1078,1465.5C 1077.38,1464.55 1077.55,1463.72 1078.5,1463C 1089.24,1459.92 1099.9,1456.75 1110.5,1453.5C 1111.04,1456.24 1110.04,1458.07 1107.5,1459C 1113.23,1458.04 1118.89,1456.54 1124.5,1454.5C 1127.1,1456.24 1127.1,1458.07 1124.5,1460C 1119.49,1462.17 1114.49,1464.34 1109.5,1466.5C 1110.44,1468.05 1111.61,1469.39 1113,1470.5C 1115.05,1469.31 1117.05,1469.31 1119,1470.5C 1118.91,1473.64 1117.41,1476.14 1114.5,1478C 1100.95,1483.74 1086.95,1488.07 1072.5,1491C 1058.7,1492.97 1045.7,1490.63 1033.5,1484C 1022.27,1474.51 1016.94,1462.34 1017.5,1447.5C 1018.18,1436.29 1021.01,1425.62 1026,1415.5C 1033.35,1400.8 1040.68,1386.14 1048,1371.5C 1047.42,1367.18 1047.75,1362.85 1049,1358.5C 1049.79,1356.41 1050.96,1354.58 1052.5,1353C 1056.29,1352.77 1059.62,1351.44 1062.5,1349C 1066.73,1344.6 1071.06,1340.44 1075.5,1336.5 Z M 1096.5,1461.5 C 1102.91,1461.65 1102.74,1462.32 1096,1463.5C 1095.5,1463.33 1095,1463.17 1094.5,1463C 1095.42,1462.72 1096.08,1462.22 1096.5,1461.5 Z"/></g>
<g><path style="opacity:0.972" fill="#e87120" d="M 476.5,1350.5 C 482.043,1353.17 486.543,1357.17 490,1362.5C 495.293,1372.04 498.793,1382.21 500.5,1393C 498.651,1405.26 496.317,1417.43 493.5,1429.5C 493.899,1431.2 494.399,1432.86 495,1434.5C 504.91,1421.68 514.577,1408.68 524,1395.5C 527.378,1392.83 530.711,1390.16 534,1387.5C 540.409,1379.35 545.242,1370.35 548.5,1360.5C 556.214,1359.79 561.714,1363.12 565,1370.5C 568.356,1378.55 570.023,1386.88 570,1395.5C 564.153,1405.87 558.319,1416.2 552.5,1426.5C 554.885,1428.89 557.552,1430.89 560.5,1432.5C 563.743,1430.77 566.577,1428.43 569,1425.5C 584.338,1404.82 601.171,1385.32 619.5,1367C 626.96,1360.02 635.793,1356.19 646,1355.5C 648.05,1355.69 649.883,1356.36 651.5,1357.5C 653.58,1355.41 655.913,1353.74 658.5,1352.5C 661.205,1353.04 663.205,1354.54 664.5,1357C 667.232,1357.41 669.899,1358.08 672.5,1359C 673.191,1360.07 673.691,1361.23 674,1362.5C 676.493,1360.33 679.326,1359.49 682.5,1360C 684.211,1361.13 684.711,1362.63 684,1364.5C 678.796,1369.71 673.296,1374.54 667.5,1379C 664.833,1379.67 662.167,1380.33 659.5,1381C 647.5,1393 635.5,1405 623.5,1417C 622.207,1417.49 620.873,1417.66 619.5,1417.5C 618.93,1422.38 617.097,1426.71 614,1430.5C 611.715,1432.91 609.549,1435.41 607.5,1438C 606.207,1438.49 604.873,1438.66 603.5,1438.5C 603.649,1437.45 603.483,1436.45 603,1435.5C 601.374,1437.92 599.874,1440.42 598.5,1443C 599.672,1444.87 599.505,1446.7 598,1448.5C 588.875,1459.96 579.375,1471.13 569.5,1482C 566.377,1485.02 562.71,1486.02 558.5,1485C 556.539,1481.58 554.706,1478.08 553,1474.5C 551.491,1473.91 549.991,1473.24 548.5,1472.5C 546.527,1469.36 544.36,1466.36 542,1463.5C 538.896,1455.83 535.229,1448.5 531,1441.5C 520.667,1456.17 510.333,1470.83 500,1485.5C 497.936,1486.59 495.769,1486.76 493.5,1486C 490.96,1483.8 488.793,1481.3 487,1478.5C 485.951,1479.52 484.784,1479.68 483.5,1479C 477.023,1469.53 473.19,1459.03 472,1447.5C 470.025,1415.76 470.691,1384.1 474,1352.5C 474.995,1351.93 475.828,1351.27 476.5,1350.5 Z"/></g>
<g><path style="opacity:0.966" fill="#e87120" d="M 1656.5,1547.5 C 1661.23,1547.22 1665.9,1547.56 1670.5,1548.5C 1671.17,1550.83 1671.83,1553.17 1672.5,1555.5C 1678.24,1559.26 1680.91,1564.59 1680.5,1571.5C 1680.05,1578.56 1679.22,1585.56 1678,1592.5C 1671.92,1598.32 1667.58,1605.32 1665,1613.5C 1662.05,1618.39 1658.38,1622.72 1654,1626.5C 1653.67,1627.83 1653.33,1629.17 1653,1630.5C 1649.75,1632.21 1646.58,1634.04 1643.5,1636C 1645.57,1636.12 1646.91,1637.12 1647.5,1639C 1636.92,1660.39 1628.09,1682.56 1621,1705.5C 1620.83,1710.2 1620.33,1714.87 1619.5,1719.5C 1618.71,1719.93 1617.87,1720.26 1617,1720.5C 1592.34,1711.18 1583.67,1693.84 1591,1668.5C 1595.57,1654.04 1601.23,1640.04 1608,1626.5C 1623.17,1599.47 1639.34,1573.14 1656.5,1547.5 Z"/></g>
<g><path style="opacity:0.962" fill="#e87120" d="M 1908.5,1682.5 C 1915.37,1680.37 1922.37,1678.7 1929.5,1677.5C 1930.03,1680.81 1928.69,1682.97 1925.5,1684C 1920.17,1686 1914.83,1688 1909.5,1690C 1912.41,1690.85 1913.41,1692.51 1912.5,1695C 1913,1695.17 1913.5,1695.33 1914,1695.5C 1916.32,1694.13 1918.82,1693.46 1921.5,1693.5C 1922.18,1697.27 1920.84,1700.11 1917.5,1702C 1898.89,1710.69 1879.39,1715.86 1859,1717.5C 1822.73,1715.88 1806.4,1696.88 1810,1660.5C 1811.7,1652.15 1814.37,1644.15 1818,1636.5C 1826.33,1619.83 1834.67,1603.17 1843,1586.5C 1842.69,1579.14 1844.02,1572.14 1847,1565.5C 1850.67,1564.91 1854.17,1563.75 1857.5,1562C 1862.2,1556.97 1867.2,1552.3 1872.5,1548C 1881.83,1546.81 1890.83,1547.97 1899.5,1551.5C 1900.95,1557.71 1900.28,1563.71 1897.5,1569.5C 1903.1,1570.73 1908.77,1571.57 1914.5,1572C 1916.66,1572.25 1918.33,1573.25 1919.5,1575C 1925.99,1575.07 1932.33,1576.07 1938.5,1578C 1939.86,1579.94 1939.53,1581.6 1937.5,1583C 1938,1583.17 1938.5,1583.33 1939,1583.5C 1941.7,1582.06 1944.54,1581.06 1947.5,1580.5C 1947.9,1583.04 1947.23,1585.21 1945.5,1587C 1941.61,1590.11 1937.28,1592.44 1932.5,1594C 1912.6,1599.09 1892.6,1603.76 1872.5,1608C 1870.12,1611.92 1867.62,1615.75 1865,1619.5C 1864.31,1620.33 1864.48,1621 1865.5,1621.5C 1875.2,1618.82 1884.87,1615.99 1894.5,1613C 1904.35,1611.51 1911.19,1615.34 1915,1624.5C 1915.4,1627.69 1916.23,1630.69 1917.5,1633.5C 1917.51,1635.59 1916.85,1637.43 1915.5,1639C 1894.7,1642.69 1874.04,1647.02 1853.5,1652C 1850.06,1653.1 1847.56,1655.27 1846,1658.5C 1842.61,1667.6 1840.11,1676.94 1838.5,1686.5C 1839.78,1688.15 1841.45,1689.31 1843.5,1690C 1849.99,1690.98 1856.32,1690.48 1862.5,1688.5C 1864.06,1688.72 1865.39,1689.39 1866.5,1690.5C 1867.47,1689.51 1868.63,1688.84 1870,1688.5C 1872.64,1689.78 1875.31,1691.12 1878,1692.5C 1883.93,1691.26 1883.76,1690.42 1877.5,1690C 1876.17,1688.67 1876.17,1687.33 1877.5,1686C 1888.68,1683.08 1899.68,1679.58 1910.5,1675.5C 1911.72,1675.89 1912.39,1676.72 1912.5,1678C 1911.4,1679.72 1910.06,1681.22 1908.5,1682.5 Z M 1908.5,1682.5 C 1907.47,1683.85 1906.14,1684.35 1904.5,1684C 1905.56,1682.81 1906.9,1682.31 1908.5,1682.5 Z M 1896.5,1684.5 C 1898.53,1684.34 1900.53,1684.5 1902.5,1685C 1899.49,1686.03 1896.49,1686.69 1893.5,1687C 1894.94,1686.62 1895.94,1685.79 1896.5,1684.5 Z"/></g>
<g><path style="opacity:0.988" fill="#e87120" d="M 1025.5,1548.5 C 1135.83,1548.33 1246.17,1548.5 1356.5,1549C 1361.1,1550.6 1363.93,1553.76 1365,1558.5C 1365.67,1574.17 1365.67,1589.83 1365,1605.5C 1363.99,1609.84 1361.49,1613.01 1357.5,1615C 1246.83,1615.67 1136.17,1615.67 1025.5,1615C 1022.33,1613.17 1019.83,1610.67 1018,1607.5C 1017.33,1590.5 1017.33,1573.5 1018,1556.5C 1020.03,1553.31 1022.53,1550.64 1025.5,1548.5 Z"/></g>
<g><path style="opacity:0.975" fill="#e87020" d="M 1755.5,1556.5 C 1767.04,1556.2 1778.54,1556.53 1790,1557.5C 1796.34,1560.84 1801.01,1565.84 1804,1572.5C 1804.22,1576.81 1805.06,1580.98 1806.5,1585C 1804.45,1589.36 1802.95,1593.86 1802,1598.5C 1798.93,1602.39 1795.93,1602.39 1793,1598.5C 1785.81,1602.47 1782.98,1600.47 1784.5,1592.5C 1762.94,1590.78 1744.27,1597.28 1728.5,1612C 1736.55,1619.21 1745.55,1625.21 1755.5,1630C 1758.68,1632.09 1761.68,1634.43 1764.5,1637C 1766.71,1638.04 1769.05,1638.71 1771.5,1639C 1775.82,1643.8 1778.98,1649.3 1781,1655.5C 1781.75,1665.2 1781.59,1674.87 1780.5,1684.5C 1778.4,1684.2 1776.4,1684.53 1774.5,1685.5C 1764.74,1695.55 1753.4,1703.39 1740.5,1709C 1737.13,1709.74 1733.96,1709.24 1731,1707.5C 1728.41,1709.32 1726.91,1711.82 1726.5,1715C 1716.03,1720.04 1705.03,1722.04 1693.5,1721C 1688.02,1716.19 1682.02,1712.19 1675.5,1709C 1671.26,1706.35 1669.42,1702.51 1670,1697.5C 1665.81,1692.18 1664.48,1686.18 1666,1679.5C 1668.21,1674.92 1671.71,1672.42 1676.5,1672C 1680.58,1677.43 1685.75,1681.26 1692,1683.5C 1706.17,1682 1719.34,1677.5 1731.5,1670C 1734.28,1668.19 1736.78,1666.02 1739,1663.5C 1736.65,1656.15 1731.82,1650.98 1724.5,1648C 1722.2,1644.7 1719.54,1641.7 1716.5,1639C 1713.38,1638.79 1710.38,1638.13 1707.5,1637C 1704.28,1633.45 1701.45,1629.61 1699,1625.5C 1697.46,1618.14 1695.79,1610.81 1694,1603.5C 1694.05,1592.57 1698.55,1583.73 1707.5,1577C 1722.18,1566.94 1738.18,1560.11 1755.5,1556.5 Z"/></g>
<g><path style="opacity:0.973" fill="#e87120" d="M 1389.5,1562.5 C 1395.84,1563.98 1400.67,1567.65 1404,1573.5C 1410.54,1584.46 1414.71,1596.29 1416.5,1609C 1414.65,1622.58 1412.32,1636.08 1409.5,1649.5C 1409.69,1651.58 1410.19,1653.58 1411,1655.5C 1422.24,1640.68 1433.24,1625.68 1444,1610.5C 1447.56,1608.4 1450.89,1606.06 1454,1603.5C 1457.67,1597.83 1461.33,1592.17 1465,1586.5C 1467.8,1570.09 1474.8,1568.09 1486,1580.5C 1490.72,1590.37 1493.38,1600.7 1494,1611.5C 1487.12,1622.85 1480.62,1634.35 1474.5,1646C 1477,1648.99 1480,1651.49 1483.5,1653.5C 1484.75,1652.96 1485.91,1652.29 1487,1651.5C 1505,1627.49 1524.5,1604.66 1545.5,1583C 1550.01,1579.91 1554.35,1576.58 1558.5,1573C 1565.69,1569.03 1573.36,1567.36 1581.5,1568C 1582.13,1568.75 1582.63,1569.58 1583,1570.5C 1585.61,1568.12 1588.44,1566.12 1591.5,1564.5C 1594.54,1565.39 1596.87,1567.22 1598.5,1570C 1601.22,1570.27 1603.89,1570.77 1606.5,1571.5C 1607.17,1572.83 1607.83,1574.17 1608.5,1575.5C 1611.42,1572.65 1614.76,1571.98 1618.5,1573.5C 1618.83,1574.33 1619.17,1575.17 1619.5,1576C 1613.04,1586.13 1604.04,1592.79 1592.5,1596C 1590.46,1598.37 1588.13,1600.37 1585.5,1602C 1573.61,1614.39 1561.28,1626.22 1548.5,1637.5C 1545.49,1645.66 1540.83,1652.83 1534.5,1659C 1531.94,1659.45 1530.44,1658.28 1530,1655.5C 1526.64,1659.55 1524.98,1664.22 1525,1669.5C 1514.62,1683.55 1503.12,1696.72 1490.5,1709C 1487.25,1710.66 1483.91,1710.82 1480.5,1709.5C 1478.5,1705.83 1476.5,1702.17 1474.5,1698.5C 1469.56,1695.72 1465.73,1691.72 1463,1686.5C 1459.53,1678.22 1455.53,1670.22 1451,1662.5C 1439.09,1678.66 1427.42,1694.99 1416,1711.5C 1414.27,1712.58 1412.44,1712.74 1410.5,1712C 1407.83,1709.33 1405.17,1706.67 1402.5,1704C 1401.17,1704 1399.83,1704 1398.5,1704C 1391.58,1693.92 1387.41,1682.75 1386,1670.5C 1384.67,1658.53 1383.84,1646.53 1383.5,1634.5C 1384.76,1611.84 1385.93,1589.17 1387,1566.5C 1387.66,1565.02 1388.5,1563.68 1389.5,1562.5 Z"/></g>
<g><path style="opacity:0.988" fill="#e77020" d="M 1057.5,1641.5 C 1145.5,1641.33 1233.5,1641.5 1321.5,1642C 1326.1,1643.6 1328.93,1646.76 1330,1651.5C 1330.67,1666.83 1330.67,1682.17 1330,1697.5C 1328.99,1701.84 1326.49,1705.01 1322.5,1707C 1234.17,1707.67 1145.83,1707.67 1057.5,1707C 1054.33,1705.17 1051.83,1702.67 1050,1699.5C 1049.33,1682.83 1049.33,1666.17 1050,1649.5C 1052.03,1646.31 1054.53,1643.64 1057.5,1641.5 Z"/></g>
<g><path style="opacity:0.994" fill="#e87021" d="M 1003.5,1726.5 C 1128.17,1726.33 1252.83,1726.5 1377.5,1727C 1397.98,1730.15 1409.82,1741.98 1413,1762.5C 1424.44,1828.81 1435.77,1895.15 1447,1961.5C 1450.71,1984.76 1441.54,2000.26 1419.5,2008C 1266.83,2008.67 1114.17,2008.67 961.5,2008C 948.688,2004.03 939.855,1995.86 935,1983.5C 934.333,1974.17 934.333,1964.83 935,1955.5C 946.359,1887.04 958.359,1818.71 971,1750.5C 977.328,1736.27 988.161,1728.27 1003.5,1726.5 Z M 1107.5,1822.5 C 1168.83,1822.33 1230.17,1822.5 1291.5,1823C 1303.48,1824.98 1310.98,1831.82 1314,1843.5C 1315.58,1861.13 1315.91,1878.79 1315,1896.5C 1313.46,1912.71 1304.62,1921.55 1288.5,1923C 1229.17,1923.67 1169.83,1923.67 1110.5,1923C 1096.64,1922.14 1087.8,1914.98 1084,1901.5C 1083.33,1882.17 1083.33,1862.83 1084,1843.5C 1087.7,1831.75 1095.53,1824.75 1107.5,1822.5 Z"/></g>
</svg>
