<?xml version="1.0" encoding="UTF-8"?>
<!DOCTYPE svg PUBLIC "-//W3C//DTD SVG 1.1//EN" "http://www.w3.org/Graphics/SVG/1.1/DTD/svg11.dtd">
<svg xmlns="http://www.w3.org/2000/svg" version="1.1" width="60px" height="60px" style="shape-rendering:geometricPrecision; text-rendering:geometricPrecision; image-rendering:optimizeQuality; fill-rule:evenodd; clip-rule:evenodd" xmlns:xlink="http://www.w3.org/1999/xlink">
<g><path style="opacity:0.984" fill="#e87120" d="M 52.5,5.5 C 55.498,11.4221 54.6647,17.0888 50,22.5C 38.1176,35.0051 25.4509,42.3384 12,44.5C 9.97279,47.2211 8.47279,50.2211 7.5,53.5C 6.75792,54.2868 5.92458,54.9535 5,55.5C 5.13129,51.4329 6.29795,47.5996 8.5,44C 8.24092,42.7387 7.57425,41.7387 6.5,41C 7.5,40.6667 8.5,40.3333 9.5,40C 8.66681,34.8271 9.83347,29.9937 13,25.5C 15.5,23 18,20.5 20.5,18C 31.0912,13.3093 41.7578,9.14267 52.5,5.5 Z"/></g>
</svg>
